# xmcd
#
# Track frame offsets:
#	150
#	15010
#	28864
#	42571
#	61501
#	77286
#	91718
#	105998
#	118915
#	135810
#
# Disc length: 1993 seconds
#
# Revision: 0
# Processed by: cddbd v1.4PL0 Copyright (c) Steve Scherf et al.
# Submitted via: dBpowerAMP V4.0
#
DISCID=6007c70a
DTITLE=Bellamy Brothers - Greatest Hits
DYEAR=1900
DGENRE=Country
TTITLE0=Let your Love Flow
TTITLE1=If I said You Had A Beautiful Body Would You Hold It Against Me
TTITLE2=You Ain't Just Whistin' Dixie
TTITLE3=Suger Daddy
TTITLE4=Dancin' Cowboys
TTITLE5=Lovers Live Longer
TTITLE6=Do You Love As Good As You Look
TTITLE7=For All The Wrong Reasons
TTITLE8=Get Into Reggae Cowboy
TTITLE9=Redneck Girl
EXTD=
EXTT0=
EXTT1=
EXTT2=
EXTT3=
EXTT4=
EXTT5=
EXTT6=
EXTT7=
EXTT8=
EXTT9=
PLAYORDER=
